<svg data-name="Layer 1" width="25px" height="25px" id="Layer_1" viewBox="0 0 100 100" xmlns="http://www.w3.org/2000/svg"><title/><path d="M94.92365,20.619A1.00278,1.00278,0,0,0,94,20H80a1,1,0,0,0,0,2v-.00006H91.58575L59.07214,54.51355a4.00032,4.00032,0,0,1-5.83923-.19415l-6.96082-7.95594a6.0002,6.0002,0,0,0-8.75866-.29119L5.29285,78.29285a1,1,0,1,0,1.4143,1.41424L38.9278,47.48639a4,4,0,0,1,5.83923.19415l6.96081,7.95593a6.00036,6.00036,0,0,0,8.75861.29126L92.99994,23.41425,93,35a1,1,0,0,0,2,0l-.00006-13.99969A1.00029,1.00029,0,0,0,94.92365,20.619Z"/></svg>